<svg fill="#A6A6A6" width="24" height="24" xmlns="http://www.w3.org/2000/svg">
  <path stroke="null" id="svg_1" d="m11.25231,3.0112c0.78848,0 1.43012,0.62704 1.43012,1.39757l0,7.01115c0,1.46186 0.49006,2.13083 1.34527,2.84173c0.96295,0.79941 1.51498,1.96219 1.51498,3.19112c0,2.31158 -1.92495,4.19272 -4.29037,4.19272s-4.29037,-1.88113 -4.29037,-4.19272c0,-1.22893 0.55203,-2.39171 1.51593,-3.19112c0.85426,-0.70903 1.34432,-1.37894 1.34432,-2.84173l0,-7.01115c0,-0.77053 0.64165,-1.39757 1.43012,-1.39757zm0,-1.86343c-1.84295,0 -3.33696,1.46 -3.33696,3.261l0,7.01115c0,0.54692 -0.24598,1.06681 -0.67216,1.42086c-1.33764,1.1106 -2.18809,2.76253 -2.18809,4.61199c0,3.34486 2.77349,6.05615 6.19721,6.05615s6.19721,-2.71129 6.19721,-6.05615c0,-1.84945 -0.85045,-3.50138 -2.18809,-4.61199c-0.42618,-0.35405 -0.67216,-0.87395 -0.67216,-1.42086l0,-7.01115c0,-1.801 -1.494,-3.261 -3.33696,-3.261zm2.00885,13.71298c-0.96486,-0.82923 -1.53214,-1.61559 -1.53214,-3.00012l0,-1.39571l-0.95342,0l0,1.39571c0,1.38266 -0.56919,2.17276 -1.53214,3.00012c-0.75701,0.65034 -1.32811,1.52988 -1.32811,2.59203c0,1.801 1.494,3.261 3.33696,3.261s3.33696,-1.46 3.33696,-3.261c0,-1.06215 -0.5711,-1.94076 -1.32811,-2.59203zm3.23494,-8.12269l7.62733,1.86343l-7.62733,-1.86343z"/>
</svg>
